# Blender 5.1.2
# www.blender.org
o CandyCane
v -0.457956 -0.103923 -1.410000
v -0.337956 -0.103923 -1.410000
v -0.277956 -0.000000 -1.410000
v -0.337956 0.103923 -1.410000
v -0.457956 0.103923 -1.410000
v -0.517956 -0.000000 -1.410000
v -0.457442 -0.103923 0.897832
v -0.338469 -0.103923 0.882168
v -0.278982 0.000000 0.874337
v -0.338469 0.103923 0.882168
v -0.457442 0.103923 0.897832
v -0.516929 0.000000 0.905663
v -0.396327 -0.103923 1.120000
v -0.292404 -0.103923 1.060000
v -0.240443 0.000000 1.030000
v -0.292404 0.103923 1.060000
v -0.396327 0.103923 1.120000
v -0.448289 0.000000 1.150000
v -0.227956 -0.103923 1.288372
v -0.167956 -0.103923 1.184448
v -0.137956 0.000000 1.132487
v -0.167956 0.103923 1.184448
v -0.227956 0.103923 1.288372
v -0.257956 0.000000 1.340333
v 0.002044 -0.103923 1.350000
v 0.002044 -0.103923 1.230000
v 0.002044 0.000000 1.170000
v 0.002044 0.103923 1.230000
v 0.002044 0.103923 1.350000
v 0.002044 0.000000 1.410000
v 0.232044 -0.103923 1.288372
v 0.172044 -0.103923 1.184448
v 0.142044 0.000000 1.132487
v 0.172044 0.103923 1.184448
v 0.232044 0.103923 1.288372
v 0.262044 0.000000 1.340333
v 0.400416 -0.103923 1.120000
v 0.296493 -0.103923 1.060000
v 0.244532 0.000000 1.030000
v 0.296493 0.103923 1.060000
v 0.400416 0.103923 1.120000
v 0.452378 0.000000 1.150000
v 0.460000 -0.103923 0.905529
v 0.344089 -0.103923 0.874471
v 0.286133 0.000000 0.858942
v 0.344089 0.103923 0.874471
v 0.460000 0.103923 0.905529
v 0.517956 0.000000 0.921058
vn -0.8669 -0.4984 0.0003
vn -0.0000 -1.0000 -0.0000
vn 0.8670 -0.4984 0.0003
vn 0.8670 0.4984 0.0003
vn -0.0000 1.0000 -0.0000
vn -0.8669 0.4984 0.0003
vn -0.8387 -0.4922 0.2333
vn 0.8441 -0.4916 -0.2141
vn 0.8441 0.4916 -0.2141
vn -0.8387 0.4922 0.2333
vn -0.6176 -0.4871 0.6176
vn 0.6176 -0.4871 -0.6176
vn 0.6176 0.4871 -0.6176
vn -0.6176 0.4871 0.6176
vn -0.2260 -0.4871 0.8436
vn 0.2260 -0.4871 -0.8436
vn 0.2260 0.4871 -0.8436
vn -0.2260 0.4871 0.8436
vn 0.2260 -0.4871 0.8436
vn -0.2260 -0.4871 -0.8436
vn -0.2260 0.4871 -0.8436
vn 0.2260 0.4871 0.8436
vn 0.6176 -0.4871 0.6176
vn -0.6176 -0.4871 -0.6176
vn -0.6176 0.4871 -0.6176
vn 0.6176 0.4871 0.6176
vn 0.8367 -0.4942 0.2362
vn -0.8442 -0.4927 -0.2112
vn -0.8442 0.4927 -0.2112
vn 0.8367 0.4942 0.2362
s 0
f 1//1 7//1 12//1 6//1
f 2//2 8//2 7//2 1//2
f 3//3 9//3 8//3 2//3
f 4//4 10//4 9//4 3//4
f 5//5 11//5 10//5 4//5
f 6//6 12//6 11//6 5//6
f 7//7 13//7 18//7 12//7
f 8//2 14//2 13//2 7//2
f 9//8 15//8 14//8 8//8
f 10//9 16//9 15//9 9//9
f 11//5 17//5 16//5 10//5
f 12//10 18//10 17//10 11//10
f 13//11 19//11 24//11 18//11
f 14//2 20//2 19//2 13//2
f 15//12 21//12 20//12 14//12
f 16//13 22//13 21//13 15//13
f 17//5 23//5 22//5 16//5
f 18//14 24//14 23//14 17//14
f 19//15 25//15 30//15 24//15
f 20//2 26//2 25//2 19//2
f 21//16 27//16 26//16 20//16
f 22//17 28//17 27//17 21//17
f 23//5 29//5 28//5 22//5
f 24//18 30//18 29//18 23//18
f 25//19 31//19 36//19 30//19
f 26//2 32//2 31//2 25//2
f 27//20 33//20 32//20 26//20
f 28//21 34//21 33//21 27//21
f 29//5 35//5 34//5 28//5
f 30//22 36//22 35//22 29//22
f 31//23 37//23 42//23 36//23
f 32//2 38//2 37//2 31//2
f 33//24 39//24 38//24 32//24
f 34//25 40//25 39//25 33//25
f 35//5 41//5 40//5 34//5
f 36//26 42//26 41//26 35//26
f 37//27 43//27 48//27 42//27
f 38//2 44//2 43//2 37//2
f 39//28 45//28 44//28 38//28
f 40//29 46//29 45//29 39//29
f 41//5 47//5 46//5 40//5
f 42//30 48//30 47//30 41//30
