# Blender 5.1.2
# www.blender.org
o ChefHat
v 0.575620 -0.201247 0.236574
v 0.250000 -0.450000 0.000000
v 0.000000 -0.650000 -0.450000
v 0.000000 -0.150000 -0.500000
v 0.264503 -0.650000 -0.364058
v 0.293893 -0.150000 -0.404509
v 0.427975 -0.650000 -0.139058
v 0.475528 -0.150000 -0.154509
v 0.427975 -0.650000 0.139058
v 0.475528 -0.150000 0.154509
v 0.264503 -0.650000 0.364058
v 0.293893 -0.150000 0.404509
v 0.000000 -0.650000 0.450000
v 0.000000 -0.150000 0.500000
v -0.264503 -0.650000 0.364058
v -0.293893 -0.150000 0.404509
v -0.427975 -0.650000 0.139058
v -0.475528 -0.150000 0.154509
v -0.427975 -0.650000 -0.139058
v -0.475528 -0.150000 -0.154509
v -0.264503 -0.650000 -0.364058
v -0.293893 -0.150000 -0.404509
v 0.125627 -0.201247 0.382788
v -0.152491 -0.201247 0.000000
v 0.125627 -0.201247 -0.382788
v 0.575620 -0.201247 -0.236574
v 0.374373 0.201247 0.382788
v -0.075620 0.201247 0.236574
v -0.075620 0.201247 -0.236574
v 0.374373 0.201247 -0.382788
v 0.652491 0.201247 0.000000
v 0.250000 0.450000 0.000000
v -0.250000 -0.450000 0.000000
v 0.075620 -0.201247 0.236574
v -0.374373 -0.201247 0.382788
v -0.652491 -0.201247 0.000000
v -0.374373 -0.201247 -0.382788
v 0.075620 -0.201247 -0.236574
v -0.125627 0.201247 0.382788
v -0.575620 0.201247 0.236574
v -0.575620 0.201247 -0.236574
v -0.125627 0.201247 -0.382788
v 0.152491 0.201247 0.000000
v -0.250000 0.450000 0.000000
v 0.000000 -0.350000 0.000000
v 0.361800 -0.073607 0.262860
v -0.138193 -0.073607 0.425320
v -0.447212 -0.073607 0.000000
v -0.138193 -0.073607 -0.425320
v 0.361800 -0.073607 -0.262860
v 0.138193 0.373607 0.425320
v -0.361800 0.373607 0.262860
v -0.361800 0.373607 -0.262860
v 0.138193 0.373607 -0.425320
v 0.447212 0.373607 0.000000
v 0.000000 0.650000 0.000000
vn -0.6071 0.7947 -0.0000
vn -0.7946 -0.1876 -0.5774
vn 0.3076 -0.0947 -0.9468
vn -0.1876 0.7947 -0.5774
vn -0.7946 -0.1876 0.5774
vn 0.8054 -0.0947 -0.5851
vn 0.4911 0.7947 0.3568
vn 0.3035 -0.1876 0.9342
vn 0.9955 -0.0947 -0.0000
vn 0.7946 0.1876 -0.5774
vn 0.9822 -0.1876 -0.0000
vn 0.8054 -0.0947 0.5851
vn -0.3035 0.1876 -0.9342
vn 0.1876 -0.7947 -0.5774
vn 0.3076 -0.0947 0.9468
vn -0.9822 0.1876 -0.0000
vn -0.4911 -0.7947 -0.3568
vn -0.3076 -0.0947 0.9468
vn -0.3035 0.1876 0.9342
vn -0.4911 -0.7947 0.3568
vn -0.8054 -0.0947 0.5851
vn 0.7946 0.1876 0.5774
vn 0.6071 -0.7947 -0.0000
vn -0.9955 -0.0947 -0.0000
vn -0.0000 1.0000 -0.0000
vn 0.1876 -0.7947 0.5774
vn -0.8054 -0.0947 -0.5851
vn -0.1876 0.7947 0.5774
vn 0.3035 -0.1876 -0.9342
vn -0.3076 -0.0947 -0.9468
vn -0.0000 -1.0000 -0.0000
vn 0.4911 0.7947 -0.3568
s 0
f 29//1 28//1 32//1
f 25//2 24//2 29//2
f 3//3 4//3 6//3 5//3
f 30//4 29//4 32//4
f 24//5 23//5 28//5
f 5//6 6//6 8//6 7//6
f 27//7 31//7 32//7
f 23//8 1//8 27//8
f 7//9 8//9 10//9 9//9
f 26//10 30//10 31//10
f 1//11 26//11 31//11
f 9//12 10//12 12//12 11//12
f 25//13 29//13 30//13
f 2//14 25//14 26//14
f 11//15 12//15 14//15 13//15
f 24//16 28//16 29//16
f 2//17 24//17 25//17
f 13//18 14//18 16//18 15//18
f 23//19 27//19 28//19
f 2//20 23//20 24//20
f 15//21 16//21 18//21 17//21
f 1//22 31//22 27//22
f 1//23 2//23 26//23
f 17//24 18//24 20//24 19//24
f 6//25 4//25 22//25 20//25 18//25 16//25 14//25 12//25 10//25 8//25
f 2//26 1//26 23//26
f 19//27 20//27 22//27 21//27
f 28//28 27//28 32//28
f 26//29 25//29 30//29
f 21//30 22//30 4//30 3//30
f 3//31 5//31 7//31 9//31 11//31 13//31 15//31 17//31 19//31 21//31
f 31//32 30//32 32//32
f 33//26 34//26 35//26
f 34//23 33//23 38//23
f 33//20 35//20 36//20
f 33//17 36//17 37//17
f 33//14 37//14 38//14
f 34//11 38//11 43//11
f 35//8 34//8 39//8
f 36//5 35//5 40//5
f 37//2 36//2 41//2
f 38//29 37//29 42//29
f 34//22 43//22 39//22
f 35//19 39//19 40//19
f 36//16 40//16 41//16
f 37//13 41//13 42//13
f 38//10 42//10 43//10
f 39//7 43//7 44//7
f 40//28 39//28 44//28
f 41//1 40//1 44//1
f 42//4 41//4 44//4
f 43//32 42//32 44//32
f 45//26 46//26 47//26
f 46//23 45//23 50//23
f 45//20 47//20 48//20
f 45//17 48//17 49//17
f 45//14 49//14 50//14
f 46//11 50//11 55//11
f 47//8 46//8 51//8
f 48//5 47//5 52//5
f 49//2 48//2 53//2
f 50//29 49//29 54//29
f 46//22 55//22 51//22
f 47//19 51//19 52//19
f 48//16 52//16 53//16
f 49//13 53//13 54//13
f 50//10 54//10 55//10
f 51//7 55//7 56//7
f 52//28 51//28 56//28
f 53//1 52//1 56//1
f 54//4 53//4 56//4
f 55//32 54//32 56//32
