# Blender 5.1.2
# www.blender.org
o CottonCandy
v 0.000000 -0.550000 0.000000
v 0.434160 -0.218329 0.315432
v -0.165831 -0.218329 0.510384
v -0.536655 -0.218329 0.000000
v -0.165831 -0.218329 -0.510384
v 0.434160 -0.218329 -0.315432
v 0.165831 0.318329 0.510384
v -0.434160 0.318329 0.315432
v -0.434160 0.318329 -0.315432
v 0.165831 0.318329 -0.510384
v 0.536655 0.318329 0.000000
v 0.000000 0.650000 0.000000
v 0.450000 -0.600000 -0.100000
v 0.775620 -0.351247 0.136574
v 0.325627 -0.351247 0.282788
v 0.047509 -0.351247 -0.100000
v 0.325627 -0.351247 -0.482788
v 0.775620 -0.351247 -0.336574
v 0.574373 0.051247 0.282788
v 0.124380 0.051247 0.136574
v 0.124380 0.051247 -0.336574
v 0.574373 0.051247 -0.482788
v 0.852491 0.051247 -0.100000
v 0.450000 0.300000 -0.100000
v -0.450000 -0.550000 0.100000
v -0.124380 -0.301247 0.336574
v -0.574373 -0.301247 0.482788
v -0.852491 -0.301247 0.100000
v -0.574373 -0.301247 -0.282788
v -0.124380 -0.301247 -0.136574
v -0.325627 0.101247 0.482788
v -0.775620 0.101247 0.336574
v -0.775620 0.101247 -0.136574
v -0.325627 0.101247 -0.282788
v -0.047509 0.101247 0.100000
v -0.450000 0.350000 0.100000
v 0.100000 -0.650000 0.400000
v 0.389440 -0.428886 0.610288
v -0.010554 -0.428886 0.740256
v -0.257770 -0.428886 0.400000
v -0.010554 -0.428886 0.059744
v 0.389440 -0.428886 0.189712
v 0.210554 -0.071114 0.740256
v -0.189440 -0.071114 0.610288
v -0.189440 -0.071114 0.189712
v 0.210554 -0.071114 0.059744
v 0.457770 -0.071114 0.400000
v 0.100000 0.150000 0.400000
v -0.100000 -0.600000 -0.400000
v 0.189440 -0.378886 -0.189712
v -0.210554 -0.378886 -0.059744
v -0.457770 -0.378886 -0.400000
v -0.210554 -0.378886 -0.740256
v 0.189440 -0.378886 -0.610288
v 0.010554 -0.021114 -0.059744
v -0.389440 -0.021114 -0.189712
v -0.389440 -0.021114 -0.610288
v 0.010554 -0.021114 -0.740256
v 0.257770 -0.021114 -0.400000
v -0.100000 0.200000 -0.400000
vn 0.1876 -0.7947 0.5774
vn 0.6071 -0.7947 -0.0000
vn -0.4911 -0.7947 0.3568
vn -0.4911 -0.7947 -0.3568
vn 0.1876 -0.7947 -0.5774
vn 0.9822 -0.1876 -0.0000
vn 0.3035 -0.1876 0.9342
vn -0.7946 -0.1876 0.5774
vn -0.7946 -0.1876 -0.5774
vn 0.3035 -0.1876 -0.9342
vn 0.7946 0.1876 0.5774
vn -0.3035 0.1876 0.9342
vn -0.9822 0.1876 -0.0000
vn -0.3035 0.1876 -0.9342
vn 0.7946 0.1876 -0.5774
vn 0.4911 0.7947 0.3568
vn -0.1876 0.7947 0.5774
vn -0.6071 0.7947 -0.0000
vn -0.1876 0.7947 -0.5774
vn 0.4911 0.7947 -0.3568
s 0
f 1//1 2//1 3//1
f 2//2 1//2 6//2
f 1//3 3//3 4//3
f 1//4 4//4 5//4
f 1//5 5//5 6//5
f 2//6 6//6 11//6
f 3//7 2//7 7//7
f 4//8 3//8 8//8
f 5//9 4//9 9//9
f 6//10 5//10 10//10
f 2//11 11//11 7//11
f 3//12 7//12 8//12
f 4//13 8//13 9//13
f 5//14 9//14 10//14
f 6//15 10//15 11//15
f 7//16 11//16 12//16
f 8//17 7//17 12//17
f 9//18 8//18 12//18
f 10//19 9//19 12//19
f 11//20 10//20 12//20
f 13//1 14//1 15//1
f 14//2 13//2 18//2
f 13//3 15//3 16//3
f 13//4 16//4 17//4
f 13//5 17//5 18//5
f 14//6 18//6 23//6
f 15//7 14//7 19//7
f 16//8 15//8 20//8
f 17//9 16//9 21//9
f 18//10 17//10 22//10
f 14//11 23//11 19//11
f 15//12 19//12 20//12
f 16//13 20//13 21//13
f 17//14 21//14 22//14
f 18//15 22//15 23//15
f 19//16 23//16 24//16
f 20//17 19//17 24//17
f 21//18 20//18 24//18
f 22//19 21//19 24//19
f 23//20 22//20 24//20
f 25//1 26//1 27//1
f 26//2 25//2 30//2
f 25//3 27//3 28//3
f 25//4 28//4 29//4
f 25//5 29//5 30//5
f 26//6 30//6 35//6
f 27//7 26//7 31//7
f 28//8 27//8 32//8
f 29//9 28//9 33//9
f 30//10 29//10 34//10
f 26//11 35//11 31//11
f 27//12 31//12 32//12
f 28//13 32//13 33//13
f 29//14 33//14 34//14
f 30//15 34//15 35//15
f 31//16 35//16 36//16
f 32//17 31//17 36//17
f 33//18 32//18 36//18
f 34//19 33//19 36//19
f 35//20 34//20 36//20
f 37//1 38//1 39//1
f 38//2 37//2 42//2
f 37//3 39//3 40//3
f 37//4 40//4 41//4
f 37//5 41//5 42//5
f 38//6 42//6 47//6
f 39//7 38//7 43//7
f 40//8 39//8 44//8
f 41//9 40//9 45//9
f 42//10 41//10 46//10
f 38//11 47//11 43//11
f 39//12 43//12 44//12
f 40//13 44//13 45//13
f 41//14 45//14 46//14
f 42//15 46//15 47//15
f 43//16 47//16 48//16
f 44//17 43//17 48//17
f 45//18 44//18 48//18
f 46//19 45//19 48//19
f 47//20 46//20 48//20
f 49//1 50//1 51//1
f 50//2 49//2 54//2
f 49//3 51//3 52//3
f 49//4 52//4 53//4
f 49//5 53//5 54//5
f 50//6 54//6 59//6
f 51//7 50//7 55//7
f 52//8 51//8 56//8
f 53//9 52//9 57//9
f 54//10 53//10 58//10
f 50//11 59//11 55//11
f 51//12 55//12 56//12
f 52//13 56//13 57//13
f 53//14 57//14 58//14
f 54//15 58//15 59//15
f 55//16 59//16 60//16
f 56//17 55//17 60//17
f 57//18 56//18 60//18
f 58//19 57//19 60//19
f 59//20 58//20 60//20
