# Blender 5.1.2
# www.blender.org
o Gumdrop
v 0.276388 0.105137 0.850649
v -0.723607 0.105137 0.525725
v -0.723607 0.105137 -0.525725
v 0.276388 0.105137 -0.850649
v 0.894426 0.105133 0.000000
v 0.000000 0.575000 0.000000
v 0.951058 -0.275000 0.309013
v 0.951058 -0.275000 -0.309013
v 0.000000 -0.275000 1.000000
v 0.587786 -0.275000 0.809017
v -0.951058 -0.275000 0.309013
v -0.587786 -0.275000 0.809017
v -0.587786 -0.275000 -0.809017
v -0.951058 -0.275000 -0.309013
v 0.587786 -0.275000 -0.809017
v 0.000000 -0.275000 -1.000000
v 0.688189 0.171876 0.499997
v -0.262869 0.171877 0.809012
v -0.850648 0.171876 0.000000
v -0.262869 0.171877 -0.809012
v 0.688189 0.171876 -0.499997
v 0.162456 0.448056 0.499995
v 0.525730 0.448054 0.000000
v -0.425323 0.448056 0.309011
v -0.425323 0.448056 -0.309011
v 0.162456 0.448056 -0.499995
v 0.771556 -0.575000 0.480040
v -0.218123 -0.575000 0.882134
v -0.906364 -0.575000 0.065141
v -0.342034 -0.575000 -0.841873
v 0.694975 -0.575000 -0.585446
v 0.771556 -0.575000 -0.480040
v 0.694975 -0.575000 0.585446
v -0.342034 -0.575000 0.841873
v -0.906364 -0.575000 -0.065141
v -0.218123 -0.575000 -0.882134
v 0.369661 -0.575000 -0.809013
v 0.176471 -0.575000 -0.871785
v -0.655189 -0.575000 -0.601563
v -0.774587 -0.575000 -0.437226
v -0.774587 -0.575000 0.437226
v -0.655189 -0.575000 0.601563
v 0.176471 -0.575000 0.871785
v 0.369661 -0.575000 0.809013
v 0.883650 -0.575000 0.101564
v 0.883650 -0.575000 -0.101564
vn 0.8866 -0.3808 0.2626
vn 0.0242 -0.3808 0.9243
vn -0.8716 -0.3808 0.3087
vn -0.5629 -0.3808 -0.7336
vn 0.5237 -0.3808 -0.7621
vn 0.8002 -0.1474 0.5814
vn -0.3056 -0.1474 0.9407
vn -0.9891 -0.1474 -0.0000
vn -0.3056 -0.1474 -0.9407
vn 0.8002 -0.1474 -0.5814
vn 0.3784 0.7203 0.5814
vn -0.4361 0.7203 0.5395
vn -0.6479 0.7203 -0.2480
vn 0.0356 0.7203 -0.6928
vn 0.6699 0.7203 -0.1802
vn 0.2314 0.9582 -0.1681
vn 0.4406 0.8387 -0.3201
vn 0.3784 0.7203 -0.5814
vn -0.0884 0.9582 -0.2720
vn -0.1683 0.8387 -0.5179
vn -0.4361 0.7203 -0.5395
vn -0.2860 0.9582 -0.0000
vn -0.5446 0.8387 -0.0000
vn -0.6479 0.7203 0.2480
vn -0.0884 0.9582 0.2720
vn -0.1683 0.8387 0.5179
vn 0.0356 0.7203 0.6928
vn 0.2314 0.9582 0.1681
vn 0.4406 0.8387 0.3201
vn 0.6699 0.7203 0.1802
vn 0.8716 0.3808 -0.3087
vn 0.7893 0.2192 -0.5735
vn 0.5629 0.3808 -0.7336
vn -0.0242 0.3808 -0.9243
vn -0.3015 0.2192 -0.9279
vn -0.5237 0.3808 -0.7621
vn -0.8866 0.3808 -0.2626
vn -0.9757 0.2192 -0.0000
vn -0.8866 0.3808 0.2626
vn -0.5237 0.3808 0.7621
vn -0.3015 0.2192 0.9279
vn -0.0242 0.3808 0.9243
vn 0.5629 0.3808 0.7336
vn 0.7893 0.2192 0.5735
vn 0.8716 0.3808 0.3087
vn 0.3056 0.1474 -0.9407
vn 0.0242 -0.3808 -0.9243
vn -0.8002 0.1474 -0.5814
vn -0.8716 -0.3808 -0.3087
vn -0.8002 0.1474 0.5814
vn -0.5629 -0.3808 0.7336
vn 0.3056 0.1474 0.9407
vn 0.5237 -0.3808 0.7621
vn 0.9891 0.1474 -0.0000
vn 0.8866 -0.3808 -0.2626
vn 0.9757 -0.2192 -0.0000
vn 0.3015 -0.2192 0.9279
vn -0.7893 -0.2192 0.5735
vn -0.7893 -0.2192 -0.5735
vn 0.3015 -0.2192 -0.9279
vn -0.0000 -1.0000 -0.0000
s 0
f 27//1 45//1 7//1
f 28//2 43//2 9//2
f 29//3 41//3 11//3
f 30//4 39//4 13//4
f 31//5 37//5 15//5
f 27//6 7//6 10//6 33//6
f 28//7 9//7 12//7 34//7
f 29//8 11//8 14//8 35//8
f 30//9 13//9 16//9 36//9
f 31//10 15//10 8//10 32//10
f 1//11 17//11 22//11
f 2//12 18//12 24//12
f 3//13 19//13 25//13
f 4//14 20//14 26//14
f 5//15 21//15 23//15
f 23//16 26//16 6//16
f 23//17 21//17 26//17
f 21//18 4//18 26//18
f 26//19 25//19 6//19
f 26//20 20//20 25//20
f 20//21 3//21 25//21
f 25//22 24//22 6//22
f 25//23 19//23 24//23
f 19//24 2//24 24//24
f 24//25 22//25 6//25
f 24//26 18//26 22//26
f 18//27 1//27 22//27
f 22//28 23//28 6//28
f 22//29 17//29 23//29
f 17//30 5//30 23//30
f 8//31 21//31 5//31
f 8//32 15//32 21//32
f 15//33 4//33 21//33
f 16//34 20//34 4//34
f 16//35 13//35 20//35
f 13//36 3//36 20//36
f 14//37 19//37 3//37
f 14//38 11//38 19//38
f 11//39 2//39 19//39
f 12//40 18//40 2//40
f 12//41 9//41 18//41
f 9//42 1//42 18//42
f 10//43 17//43 1//43
f 10//44 7//44 17//44
f 7//45 5//45 17//45
f 15//46 16//46 4//46
f 38//47 36//47 16//47
f 13//48 14//48 3//48
f 40//49 35//49 14//49
f 11//50 12//50 2//50
f 42//51 34//51 12//51
f 9//52 10//52 1//52
f 44//53 33//53 10//53
f 7//54 8//54 5//54
f 46//55 32//55 8//55
f 7//56 45//56 46//56 8//56
f 9//57 43//57 44//57 10//57
f 11//58 41//58 42//58 12//58
f 13//59 39//59 40//59 14//59
f 15//60 37//60 38//60 16//60
f 46//61 45//61 27//61 33//61 44//61 43//61 28//61 34//61 42//61 41//61 29//61 35//61 40//61 39//61 30//61 36//61 38//61 37//61 31//61 32//61
