# Blender 5.1.2
# www.blender.org
o Oven
v -0.420000 -0.500000 0.220000
v -0.420000 -0.420000 0.300000
v -0.500000 -0.420000 0.220000
v -0.420000 -0.476569 0.276569
v -0.466188 -0.466188 0.266188
v -0.476569 -0.420000 0.276569
v -0.476569 -0.476569 0.220000
v -0.420000 0.420000 0.300000
v -0.420000 0.500000 0.220000
v -0.500000 0.420000 0.220000
v -0.420000 0.476569 0.276569
v -0.466188 0.466188 0.266188
v -0.476569 0.476569 0.220000
v -0.476569 0.420000 0.276569
v -0.420000 -0.500000 -0.220000
v -0.500000 -0.420000 -0.220000
v -0.420000 -0.420000 -0.300000
v -0.476569 -0.476569 -0.220000
v -0.466188 -0.466188 -0.266188
v -0.476569 -0.420000 -0.276569
v -0.420000 -0.476569 -0.276569
v -0.420000 0.500000 -0.220000
v -0.420000 0.420000 -0.300000
v -0.500000 0.420000 -0.220000
v -0.420000 0.476569 -0.276569
v -0.466188 0.466188 -0.266188
v -0.476569 0.420000 -0.276569
v -0.476569 0.476569 -0.220000
v 0.420000 -0.500000 0.220000
v 0.500000 -0.420000 0.220000
v 0.420000 -0.420000 0.300000
v 0.476569 -0.476569 0.220000
v 0.466188 -0.466188 0.266188
v 0.476569 -0.420000 0.276569
v 0.420000 -0.476569 0.276569
v 0.420000 0.500000 0.220000
v 0.420000 0.420000 0.300000
v 0.500000 0.420000 0.220000
v 0.420000 0.476569 0.276569
v 0.466188 0.466188 0.266188
v 0.476569 0.420000 0.276569
v 0.476569 0.476569 0.220000
v 0.420000 -0.500000 -0.220000
v 0.420000 -0.420000 -0.300000
v 0.500000 -0.420000 -0.220000
v 0.420000 -0.476569 -0.276569
v 0.466188 -0.466188 -0.266188
v 0.476569 -0.420000 -0.276569
v 0.476569 -0.476569 -0.220000
v 0.420000 0.500000 -0.220000
v 0.500000 0.420000 -0.220000
v 0.420000 0.420000 -0.300000
v 0.476569 0.476569 -0.220000
v 0.466188 0.466188 -0.266188
v 0.476569 0.420000 -0.276569
v 0.420000 0.476569 -0.276569
vn -0.3251 -0.8881 0.3251
vn -0.3251 -0.3251 0.8881
vn -0.8881 -0.3251 0.3251
vn -0.3251 0.3251 0.8881
vn -0.3251 0.8881 0.3251
vn -0.8881 0.3251 0.3251
vn -0.3251 -0.8881 -0.3251
vn -0.8881 -0.3251 -0.3251
vn -0.3251 -0.3251 -0.8881
vn -0.3251 0.8881 -0.3251
vn -0.3251 0.3251 -0.8881
vn -0.8881 0.3251 -0.3251
vn 0.3251 -0.8881 0.3251
vn 0.8881 -0.3251 0.3251
vn 0.3251 -0.3251 0.8881
vn 0.3251 0.8881 0.3251
vn 0.3251 0.3251 0.8881
vn 0.8881 0.3251 0.3251
vn 0.3251 -0.8881 -0.3251
vn 0.3251 -0.3251 -0.8881
vn 0.8881 -0.3251 -0.3251
vn 0.3251 0.8881 -0.3251
vn 0.8881 0.3251 -0.3251
vn 0.3251 0.3251 -0.8881
vn -0.3827 -0.9239 -0.0000
vn -0.9239 -0.3827 -0.0000
vn -0.3827 -0.0000 0.9239
vn -0.9239 -0.0000 0.3827
vn -0.3827 0.9239 -0.0000
vn -0.9239 0.3827 -0.0000
vn -0.3827 -0.0000 -0.9239
vn -0.9239 -0.0000 -0.3827
vn -0.0000 -0.9239 -0.3827
vn -0.0000 -0.3827 -0.9239
vn -0.0000 0.9239 -0.3827
vn -0.0000 0.3827 -0.9239
vn 0.9239 -0.0000 -0.3827
vn 0.3827 -0.0000 -0.9239
vn 0.3827 -0.9239 -0.0000
vn 0.9239 -0.3827 -0.0000
vn 0.3827 0.9239 -0.0000
vn 0.9239 0.3827 -0.0000
vn 0.3827 -0.0000 0.9239
vn 0.9239 -0.0000 0.3827
vn -0.0000 -0.9239 0.3827
vn -0.0000 -0.3827 0.9239
vn -0.0000 0.9239 0.3827
vn -0.0000 0.3827 0.9239
vn -0.0000 -1.0000 -0.0000
vn -1.0000 -0.0000 -0.0000
vn -0.0000 -0.0000 1.0000
vn -0.0000 1.0000 -0.0000
vn -0.0000 -0.0000 -1.0000
vn 1.0000 -0.0000 -0.0000
s 0
f 1//1 4//1 5//1 7//1
f 2//2 6//2 5//2 4//2
f 3//3 7//3 5//3 6//3
f 8//4 11//4 12//4 14//4
f 9//5 13//5 12//5 11//5
f 10//6 14//6 12//6 13//6
f 15//7 18//7 19//7 21//7
f 16//8 20//8 19//8 18//8
f 17//9 21//9 19//9 20//9
f 22//10 25//10 26//10 28//10
f 23//11 27//11 26//11 25//11
f 24//12 28//12 26//12 27//12
f 29//13 32//13 33//13 35//13
f 30//14 34//14 33//14 32//14
f 31//15 35//15 33//15 34//15
f 36//16 39//16 40//16 42//16
f 37//17 41//17 40//17 39//17
f 38//18 42//18 40//18 41//18
f 43//19 46//19 47//19 49//19
f 44//20 48//20 47//20 46//20
f 45//21 49//21 47//21 48//21
f 50//22 53//22 54//22 56//22
f 51//23 55//23 54//23 53//23
f 52//24 56//24 54//24 55//24
f 15//25 1//25 7//25 18//25
f 18//26 7//26 3//26 16//26
f 2//27 8//27 14//27 6//27
f 6//28 14//28 10//28 3//28
f 9//29 22//29 28//29 13//29
f 13//30 28//30 24//30 10//30
f 23//31 17//31 20//31 27//31
f 27//32 20//32 16//32 24//32
f 43//33 15//33 21//33 46//33
f 46//34 21//34 17//34 44//34
f 22//35 50//35 56//35 25//35
f 25//36 56//36 52//36 23//36
f 51//37 45//37 48//37 55//37
f 55//38 48//38 44//38 52//38
f 29//39 43//39 49//39 32//39
f 32//40 49//40 45//40 30//40
f 50//41 36//41 42//41 53//41
f 53//42 42//42 38//42 51//42
f 37//43 31//43 34//43 41//43
f 41//44 34//44 30//44 38//44
f 1//45 29//45 35//45 4//45
f 4//46 35//46 31//46 2//46
f 36//47 9//47 11//47 39//47
f 39//48 11//48 8//48 37//48
f 15//49 43//49 29//49 1//49
f 3//50 10//50 24//50 16//50
f 31//51 37//51 8//51 2//51
f 50//52 22//52 9//52 36//52
f 17//53 23//53 52//53 44//53
f 45//54 51//54 38//54 30//54
