# Blender 5.1.2
# www.blender.org
o RollingPin
v 0.000000 0.280000 -1.000000
v 0.000000 0.280000 1.000000
v 0.164580 0.226525 -1.000000
v 0.164580 0.226525 1.000000
v 0.266296 0.086525 -1.000000
v 0.266296 0.086525 1.000000
v 0.266296 -0.086525 -1.000000
v 0.266296 -0.086525 1.000000
v 0.164580 -0.226525 -1.000000
v 0.164580 -0.226525 1.000000
v 0.000000 -0.280000 -1.000000
v 0.000000 -0.280000 1.000000
v -0.164580 -0.226525 -1.000000
v -0.164580 -0.226525 1.000000
v -0.266296 -0.086525 -1.000000
v -0.266296 -0.086525 1.000000
v -0.266296 0.086525 -1.000000
v -0.266296 0.086525 1.000000
v -0.164580 0.226525 -1.000000
v -0.164580 0.226525 1.000000
v 0.000000 0.120000 1.000000
v 0.000000 0.120000 1.700000
v 0.084853 0.084853 1.000000
v 0.084853 0.084853 1.700000
v 0.120000 0.000000 1.000000
v 0.120000 0.000000 1.700000
v 0.084853 -0.084853 1.000000
v 0.084853 -0.084853 1.700000
v 0.000000 -0.120000 1.000000
v 0.000000 -0.120000 1.700000
v -0.084853 -0.084853 1.000000
v -0.084853 -0.084853 1.700000
v -0.120000 0.000000 1.000000
v -0.120000 0.000000 1.700000
v -0.084853 0.084853 1.000000
v -0.084853 0.084853 1.700000
v 0.000000 0.120000 -1.700000
v 0.000000 0.120000 -1.000000
v 0.084853 0.084853 -1.700000
v 0.084853 0.084853 -1.000000
v 0.120000 -0.000000 -1.700000
v 0.120000 -0.000000 -1.000000
v 0.084853 -0.084853 -1.700000
v 0.084853 -0.084853 -1.000000
v 0.000000 -0.120000 -1.700000
v 0.000000 -0.120000 -1.000000
v -0.084853 -0.084853 -1.700000
v -0.084853 -0.084853 -1.000000
v -0.120000 -0.000000 -1.700000
v -0.120000 -0.000000 -1.000000
v -0.084853 0.084853 -1.700000
v -0.084853 0.084853 -1.000000
vn -0.9239 -0.3827 -0.0000
vn 0.9239 -0.3827 -0.0000
vn 0.3090 0.9511 -0.0000
vn -0.0000 -0.0000 1.0000
vn 0.8090 0.5878 -0.0000
vn 0.3827 -0.9239 -0.0000
vn 1.0000 -0.0000 -0.0000
vn -0.3827 -0.9239 -0.0000
vn 0.9239 0.3827 -0.0000
vn 0.8090 -0.5878 -0.0000
vn 0.3827 0.9239 -0.0000
vn 0.3090 -0.9511 -0.0000
vn -0.3090 -0.9511 -0.0000
vn -0.8090 -0.5878 -0.0000
vn -1.0000 -0.0000 -0.0000
vn -0.8090 0.5878 -0.0000
vn -0.3090 0.9511 -0.0000
vn -0.0000 -0.0000 -1.0000
vn -0.9239 0.3827 -0.0000
vn -0.3827 0.9239 -0.0000
s 0
f 31//1 32//1 34//1 33//1
f 25//2 26//2 28//2 27//2
f 1//3 2//3 4//3 3//3
f 28//4 26//4 24//4 22//4 36//4 34//4 32//4 30//4
f 3//5 4//5 6//5 5//5
f 41//2 42//2 44//2 43//2
f 43//6 44//6 46//6 45//6
f 5//7 6//7 8//7 7//7
f 29//8 30//8 32//8 31//8
f 23//9 24//9 26//9 25//9
f 7//10 8//10 10//10 9//10
f 37//11 38//11 40//11 39//11
f 39//9 40//9 42//9 41//9
f 9//12 10//12 12//12 11//12
f 45//8 46//8 48//8 47//8
f 11//13 12//13 14//13 13//13
f 27//6 28//6 30//6 29//6
f 21//11 22//11 24//11 23//11
f 13//14 14//14 16//14 15//14
f 15//15 16//15 18//15 17//15
f 4//4 2//4 20//4 18//4 16//4 14//4 12//4 10//4 8//4 6//4
f 17//16 18//16 20//16 19//16
f 19//17 20//17 2//17 1//17
f 1//18 3//18 5//18 7//18 9//18 11//18 13//18 15//18 17//18 19//18
f 33//19 34//19 36//19 35//19
f 35//20 36//20 22//20 21//20
f 33//18 35//18 21//18 23//18 25//18 27//18 29//18 31//18
f 47//1 48//1 50//1 49//1
f 43//18 45//18 47//18 49//18 51//18 37//18 39//18 41//18
f 49//19 50//19 52//19 51//19
f 51//20 52//20 38//20 37//20
f 42//4 40//4 38//4 52//4 50//4 48//4 46//4 44//4
