# Blender 5.1.2
# www.blender.org
o ShadowBody
v 0.000000 -0.785000 0.119090
v 0.723607 -0.287498 0.618529
v -0.276388 -0.287498 0.927206
v -0.894426 -0.287494 0.119090
v -0.276388 -0.287498 -0.689027
v 0.723607 -0.287498 -0.380349
v 0.276388 0.517498 0.927206
v -0.723607 0.517498 0.618529
v -0.723607 0.517498 -0.380349
v 0.276388 0.517498 -0.689027
v 0.894426 0.517494 0.119090
v 0.000000 1.015000 0.119090
v -0.162456 -0.650589 0.594085
v 0.425323 -0.650589 0.412650
v 0.262869 -0.358164 0.887651
v 0.850648 -0.358162 0.119090
v 0.425323 -0.650589 -0.174471
v -0.525730 -0.650586 0.119090
v -0.688189 -0.358163 0.594087
v -0.162456 -0.650589 -0.355906
v -0.688189 -0.358163 -0.355907
v 0.262869 -0.358164 -0.649471
v 0.951058 0.115000 0.412652
v 0.951058 0.115000 -0.174472
v 0.000000 0.115000 1.069090
v 0.587786 0.115000 0.887655
v -0.951058 0.115000 0.412652
v -0.587786 0.115000 0.887655
v -0.587786 0.115000 -0.649476
v -0.951058 0.115000 -0.174472
v 0.587786 0.115000 -0.649476
v 0.000000 0.115000 -0.830910
v 0.688189 0.588163 0.594087
v -0.262869 0.588164 0.887651
v -0.850648 0.588162 0.119090
v -0.262869 0.588164 -0.649471
v 0.688189 0.588163 -0.355907
v 0.162456 0.880589 0.594085
v 0.525730 0.880587 0.119090
v -0.425323 0.880589 0.412650
v -0.425323 0.880589 -0.174471
v 0.162456 0.880589 -0.355906
v 0.000000 -0.935000 -0.430910
v 0.361800 -0.658607 -0.168050
v -0.138193 -0.658607 -0.005590
v -0.447212 -0.658607 -0.430910
v -0.138193 -0.658607 -0.856230
v 0.361800 -0.658607 -0.693770
v 0.138193 -0.211393 -0.005590
v -0.361800 -0.211393 -0.168050
v -0.361800 -0.211393 -0.693770
v 0.138193 -0.211393 -0.856230
v 0.447212 -0.211393 -0.430910
v 0.000000 0.065000 -0.430910
v 0.000000 -1.015000 -0.830910
v 0.202608 -0.860220 -0.683709
v -0.077388 -0.860220 -0.592731
v -0.250439 -0.860220 -0.830910
v -0.077388 -0.860220 -1.069090
v 0.202608 -0.860220 -0.978112
v 0.077388 -0.609780 -0.592731
v -0.202608 -0.609780 -0.683709
v -0.202608 -0.609780 -0.978112
v 0.077388 -0.609780 -1.069090
v 0.250439 -0.609780 -0.830910
v 0.000000 -0.455000 -0.830910
vn 0.0927 -0.9493 0.3003
vn 0.6645 -0.6977 0.2677
vn -0.2434 -0.9519 0.1861
vn -0.2434 -0.9519 -0.1861
vn 0.0927 -0.9493 -0.3003
vn 0.8903 -0.3611 0.2775
vn 0.0234 -0.3466 0.9377
vn -0.8740 -0.3606 0.3258
vn -0.5513 -0.3522 -0.7563
vn 0.5118 -0.3515 -0.7839
vn 0.7869 -0.1368 0.6018
vn -0.2923 -0.1331 0.9470
vn -0.9902 -0.1393 -0.0000
vn -0.2923 -0.1331 -0.9470
vn 0.7869 -0.1368 -0.6018
vn 0.3821 0.6870 0.6181
vn -0.4415 0.6888 0.5750
vn -0.6645 0.6977 -0.2677
vn 0.0357 0.6817 -0.7308
vn 0.6882 0.6988 -0.1948
vn 0.2434 0.9519 -0.1861
vn 0.4556 0.8191 -0.3485
vn 0.3821 0.6870 -0.6181
vn -0.0927 0.9493 -0.3003
vn -0.1724 0.8114 -0.5585
vn -0.4415 0.6888 -0.5750
vn -0.3013 0.9535 -0.0000
vn -0.5665 0.8240 -0.0000
vn -0.6645 0.6977 0.2677
vn -0.0927 0.9493 0.3003
vn -0.1724 0.8114 0.5585
vn 0.0357 0.6817 0.7308
vn 0.2434 0.9519 0.1861
vn 0.4556 0.8191 0.3485
vn 0.6882 0.6988 0.1948
vn 0.8740 0.3606 -0.3258
vn 0.7776 0.2040 -0.5947
vn 0.5513 0.3522 -0.7563
vn -0.0234 0.3466 -0.9377
vn -0.2891 0.1985 -0.9365
vn -0.5118 0.3515 -0.7839
vn -0.8903 0.3611 -0.2775
vn -0.9782 0.2076 -0.0000
vn -0.8903 0.3611 0.2775
vn -0.5118 0.3515 0.7839
vn -0.2891 0.1985 0.9365
vn -0.0234 0.3466 0.9377
vn 0.5513 0.3522 0.7563
vn 0.7776 0.2040 0.5947
vn 0.8740 0.3606 0.3258
vn 0.2923 0.1331 -0.9470
vn 0.2891 -0.1985 -0.9365
vn 0.0234 -0.3466 -0.9377
vn -0.7869 0.1368 -0.6018
vn -0.7776 -0.2040 -0.5947
vn -0.8740 -0.3606 -0.3258
vn -0.7869 0.1368 0.6018
vn -0.7776 -0.2040 0.5947
vn -0.5513 -0.3522 0.7563
vn 0.2923 0.1331 0.9470
vn 0.2891 -0.1985 0.9365
vn 0.5118 -0.3515 0.7839
vn 0.9902 0.1393 -0.0000
vn 0.9782 -0.2076 -0.0000
vn 0.8903 -0.3611 -0.2775
vn 0.4415 -0.6888 -0.5750
vn 0.1724 -0.8114 -0.5585
vn -0.0357 -0.6817 -0.7308
vn -0.3821 -0.6870 -0.6181
vn -0.4556 -0.8191 -0.3485
vn -0.6882 -0.6988 -0.1948
vn -0.6882 -0.6988 0.1948
vn -0.4556 -0.8191 0.3485
vn -0.3821 -0.6870 0.6181
vn 0.6645 -0.6977 -0.2677
vn 0.5665 -0.8240 -0.0000
vn 0.3013 -0.9535 -0.0000
vn -0.0357 -0.6817 0.7308
vn 0.1724 -0.8114 0.5585
vn 0.4415 -0.6888 0.5750
vn 0.1876 -0.7947 0.5774
vn 0.6071 -0.7947 -0.0000
vn -0.4911 -0.7947 0.3568
vn -0.4911 -0.7947 -0.3568
vn 0.1876 -0.7947 -0.5774
vn 0.9822 -0.1876 -0.0000
vn 0.3035 -0.1876 0.9342
vn -0.7946 -0.1876 0.5774
vn -0.7946 -0.1876 -0.5774
vn 0.3035 -0.1876 -0.9342
vn 0.7946 0.1876 0.5774
vn -0.3035 0.1876 0.9342
vn -0.9822 0.1876 -0.0000
vn -0.3035 0.1876 -0.9342
vn 0.7946 0.1876 -0.5774
vn 0.4911 0.7947 0.3568
vn -0.1876 0.7947 0.5774
vn -0.6071 0.7947 -0.0000
vn -0.1876 0.7947 -0.5774
vn 0.4911 0.7947 -0.3568
s 0
f 1//1 14//1 13//1
f 2//2 14//2 16//2
f 1//3 13//3 18//3
f 1//4 18//4 20//4
f 1//5 20//5 17//5
f 2//6 16//6 23//6
f 3//7 15//7 25//7
f 4//8 19//8 27//8
f 5//9 21//9 29//9
f 6//10 22//10 31//10
f 2//11 23//11 26//11
f 3//12 25//12 28//12
f 4//13 27//13 30//13
f 5//14 29//14 32//14
f 6//15 31//15 24//15
f 7//16 33//16 38//16
f 8//17 34//17 40//17
f 9//18 35//18 41//18
f 10//19 36//19 42//19
f 11//20 37//20 39//20
f 39//21 42//21 12//21
f 39//22 37//22 42//22
f 37//23 10//23 42//23
f 42//24 41//24 12//24
f 42//25 36//25 41//25
f 36//26 9//26 41//26
f 41//27 40//27 12//27
f 41//28 35//28 40//28
f 35//29 8//29 40//29
f 40//30 38//30 12//30
f 40//31 34//31 38//31
f 34//32 7//32 38//32
f 38//33 39//33 12//33
f 38//34 33//34 39//34
f 33//35 11//35 39//35
f 24//36 37//36 11//36
f 24//37 31//37 37//37
f 31//38 10//38 37//38
f 32//39 36//39 10//39
f 32//40 29//40 36//40
f 29//41 9//41 36//41
f 30//42 35//42 9//42
f 30//43 27//43 35//43
f 27//44 8//44 35//44
f 28//45 34//45 8//45
f 28//46 25//46 34//46
f 25//47 7//47 34//47
f 26//48 33//48 7//48
f 26//49 23//49 33//49
f 23//50 11//50 33//50
f 31//51 32//51 10//51
f 31//52 22//52 32//52
f 22//53 5//53 32//53
f 29//54 30//54 9//54
f 29//55 21//55 30//55
f 21//56 4//56 30//56
f 27//57 28//57 8//57
f 27//58 19//58 28//58
f 19//59 3//59 28//59
f 25//60 26//60 7//60
f 25//61 15//61 26//61
f 15//62 2//62 26//62
f 23//63 24//63 11//63
f 23//64 16//64 24//64
f 16//65 6//65 24//65
f 17//66 22//66 6//66
f 17//67 20//67 22//67
f 20//68 5//68 22//68
f 20//69 21//69 5//69
f 20//70 18//70 21//70
f 18//71 4//71 21//71
f 18//72 19//72 4//72
f 18//73 13//73 19//73
f 13//74 3//74 19//74
f 16//75 17//75 6//75
f 16//76 14//76 17//76
f 14//77 1//77 17//77
f 13//78 15//78 3//78
f 13//79 14//79 15//79
f 14//80 2//80 15//80
f 43//81 44//81 45//81
f 44//82 43//82 48//82
f 43//83 45//83 46//83
f 43//84 46//84 47//84
f 43//85 47//85 48//85
f 44//86 48//86 53//86
f 45//87 44//87 49//87
f 46//88 45//88 50//88
f 47//89 46//89 51//89
f 48//90 47//90 52//90
f 44//91 53//91 49//91
f 45//92 49//92 50//92
f 46//93 50//93 51//93
f 47//94 51//94 52//94
f 48//95 52//95 53//95
f 49//96 53//96 54//96
f 50//97 49//97 54//97
f 51//98 50//98 54//98
f 52//99 51//99 54//99
f 53//100 52//100 54//100
f 55//81 56//81 57//81
f 56//82 55//82 60//82
f 55//83 57//83 58//83
f 55//84 58//84 59//84
f 55//85 59//85 60//85
f 56//86 60//86 65//86
f 57//87 56//87 61//87
f 58//88 57//88 62//88
f 59//89 58//89 63//89
f 60//90 59//90 64//90
f 56//91 65//91 61//91
f 57//92 61//92 62//92
f 58//93 62//93 63//93
f 59//94 63//94 64//94
f 60//95 64//95 65//95
f 61//96 65//96 66//96
f 62//97 61//97 66//97
f 63//98 62//98 66//98
f 64//99 63//99 66//99
f 65//100 64//100 66//100
